<svg xmlns="http://www.w3.org/2000/svg" viewBox="0 0 64 64">
  <rect width="64" height="64" rx="12" fill="#0a0808"/>
  <path fill="#f4f0dc" d="M32 7c-12.7 0-22 8.7-22 21.2 0 8.2 4.4 15 11.5 18.3l-1 8.5h23l-1-8.5C49.6 43.2 54 36.4 54 28.2 54 15.7 44.7 7 32 7Zm-12.7 24.9c0-4.2 3.2-7.3 7.7-7.3 4.9 0 8.5 2.5 8.5 5.6 0 3.3-5.1 7.2-11 7.2-3.4 0-5.2-1.9-5.2-5.5Zm8.4 13.8 4.3-7.1 4.3 7.1-4.3 2.5-4.3-2.5Zm9.3-15.5c0-3.1 3.6-5.6 8.5-5.6 4.5 0 7.7 3.1 7.7 7.3 0 3.6-1.8 5.5-5.2 5.5-5.9 0-11-3.9-11-7.2ZM24.4 52.4h4.2v5.1h-4.2v-5.1Zm5.9 0h3.4v5.1h-3.4v-5.1Zm5.1 0h4.2v5.1h-4.2v-5.1Z"/>
  <path fill="#9db8df" d="m13.3 45.7-9.6 6.1 12.5-.2 5.8 7.8 2.3-8.2-6.7-4.2-4.3-1.3Zm37.4 0 9.6 6.1-12.5-.2-5.8 7.8-2.3-8.2 6.7-4.2 4.3-1.3Z" opacity=".82"/>
</svg>
